<?xml version="1.0" standalone="no"?>
<!DOCTYPE svg PUBLIC "-//W3C//DTD SVG 1.1//EN" "http://www.w3.org/Graphics/SVG/1.1/DTD/svg11.dtd" >
<svg xmlns="http://www.w3.org/2000/svg">
<defs>
<font id="TeXGyreHerosCondensed-Bold" horiz-adv-x="933" >
  <font-face 
    font-family="TeXGyreHerosCn"
    font-weight="700"
    font-stretch="condensed"
    units-per-em="2048"
    panose-1="0 0 8 6 0 0 0 0 0 0"
    ascent="1624"
    descent="-424"
    x-height="1090"
    cap-height="1470"
    bbox="-84 -492 1602 1964"
    underline-thickness="102"
    underline-position="-51"
    unicode-range="U+0020-U+00FF"
  />
<missing-glyph horiz-adv-x="748" 
d="M68 0v1365h544v-1365h-544zM136 68h408v1229h-408v-1229z" />
    <glyph glyph-name=".notdef" horiz-adv-x="748" 
d="M68 0v1365h544v-1365h-544zM136 68h408v1229h-408v-1229z" />
    <glyph glyph-name=".null" horiz-adv-x="0" 
 />
    <glyph glyph-name="nonmarkingreturn" horiz-adv-x="682" 
 />
    <glyph glyph-name="space" unicode=" " horiz-adv-x="466" 
 />
    <glyph glyph-name="exclam" unicode="!" horiz-adv-x="559" 
d="M403 0h-245v291h245v-291zM410 1096l-68 -688h-123l-67 688v374h258v-374z" />
    <glyph glyph-name="quotedbl" unicode="&#x22;" horiz-adv-x="796" 
d="M631 915h-164v555h164v-555zM328 915h-164v555h164v-555z" />
    <glyph glyph-name="numbersign" unicode="#" 
d="M903 1022l-20 -184h-162l-29 -246h162l-20 -184h-162l-47 -408h-158l47 408h-164l-45 -408h-158l46 408h-162l20 184h162l29 246h-162l20 184h162l47 408h158l-47 -408h164l45 408h157l-45 -408h162zM563 838h-164l-28 -246h164z" />
    <glyph glyph-name="dollar" unicode="$" 
d="M879 412q0 -188 -94.5 -307t-278.5 -140v-201h-78v201q-203 20 -290 131t-87 344h219q0 -129 35 -183t123 -75v430q-199 68 -275.5 160t-76.5 258q0 184 89 297t263 127v133h78v-133q354 -41 354 -428h-217q0 113 -34 162t-103 49v-383q227 -90 300 -180t73 -262z
M428 883v354q-141 -16 -141 -168q0 -141 141 -186zM653 377q0 143 -147 201v-396q147 19 147 195z" />
    <glyph glyph-name="percent" unicode="%" horiz-adv-x="1492" 
d="M565 1067q0 -387 -258 -387q-260 0 -260 385q0 389 262 389q256 0 256 -387zM397 1067q0 137 -19.5 190.5t-70.5 53.5q-53 0 -72.5 -53.5t-19.5 -200.5q0 -131 19.5 -182.5t70.5 -51.5q53 0 72.5 53.5t19.5 190.5zM1139 1454l-668 -1493h-125l668 1493h125zM1446 362.5
q0 -387.5 -258 -387.5q-260 0 -260 385q0 389 262 390q256 0 256 -387.5zM1278 365q0 137 -19.5 189t-70.5 52q-53 0 -72.5 -53t-19.5 -199q0 -133 19.5 -184t70.5 -51q53 0 72.5 53.5t19.5 192.5z" />
    <glyph glyph-name="ampersand" unicode="&#x26;" horiz-adv-x="1212" 
d="M1178 0h-285l-82 125q-76 -88 -153.5 -126t-182.5 -38q-170 0 -277.5 120t-107.5 308q0 246 232 418l26 18q-111 158 -110 310q0 145 89 240t224 95q131 0 217 -95t86 -240q0 -207 -199 -355l170 -258q53 102 64 242h209q-12 -145 -42 -240.5t-98 -201.5zM649 1133
q0 53 -26.5 85.5t-71.5 32.5q-43 0 -70.5 -31.5t-27.5 -82.5q0 -68 88 -187q61 51 84.5 91.5t23.5 91.5zM690 305l-221 338q-90 -80 -116.5 -124t-26.5 -111q0 -88 49 -146.5t123 -58.5q92 0 192 102z" />
    <glyph glyph-name="quotesingle" unicode="'" horiz-adv-x="399" 
d="M283 915h-166v555h166v-555z" />
    <glyph glyph-name="parenleft" unicode="(" horiz-adv-x="559" 
d="M526 -424h-172q-158 268 -226.5 489.5t-68.5 473.5q0 246 67 467t228 497h172q-127 -272 -176 -485t-49 -481q0 -264 50 -477.5t175 -483.5z" />
    <glyph glyph-name="parenright" unicode=")" horiz-adv-x="559" 
d="M500 539q0 -246 -66.5 -469.5t-228.5 -493.5h-172q125 266 175 481t50 484q0 262 -49 474t-176 488h172q162 -274 228.5 -493t66.5 -471z" />
    <glyph glyph-name="asterisk" unicode="*" horiz-adv-x="653" 
d="M608 1147l-176 -66l115 -198l-105 -90l-114 186l-117 -186l-105 90l113 198l-174 66l39 149l172 -69v243h141v-243l170 69z" />
    <glyph glyph-name="plus" unicode="+" horiz-adv-x="980" 
d="M864 424h-284v-285h-177v285h-286v176h286v287h177v-287h284v-176z" />
    <glyph glyph-name="comma" unicode="," horiz-adv-x="466" 
d="M358 41q0 -330 -252 -385v108q72 29 103 81.5t39 154.5h-142v301h252v-260z" />
    <glyph glyph-name="hyphen" unicode="-" horiz-adv-x="559" 
d="M514 440h-469v267h469v-267z" />
    <glyph glyph-name="period" unicode="." horiz-adv-x="466" 
d="M358 0h-252v301h252v-301z" />
    <glyph glyph-name="slash" unicode="/" horiz-adv-x="466" 
d="M522 1509l-381 -1548h-196l381 1548h196z" />
    <glyph glyph-name="zero" unicode="0" 
d="M881 709q0 -385 -102.5 -566.5t-311.5 -181.5q-414 0 -414 741q0 393 103.5 572.5t316.5 179.5q408 0 408 -745zM639 709q0 289 -38 402.5t-132 113.5q-100 0 -137 -114t-37 -423q0 -276 38 -387t134 -111t134 114t38 405z" />
    <glyph glyph-name="one" unicode="1" 
d="M635 0h-234v1001h-284v201h33q274 0 292 252h193v-1454z" />
    <glyph glyph-name="two" unicode="2" 
d="M858 0h-815q8 219 83 348t308 330q102 94 144.5 165.5t42.5 155.5q0 96 -46.5 154.5t-121.5 58.5q-88 0 -128 -63.5t-40 -208.5h-228q0 262 103.5 388t288.5 126q180 0 293.5 -127t113.5 -330q0 -221 -141 -376q-29 -33 -193 -175q-102 -90 -132 -121.5t-50 -72.5h518
v-252z" />
    <glyph glyph-name="three" unicode="3" 
d="M866 430q0 -209 -114.5 -339t-296.5 -130q-393 0 -410 485h231v-18q2 -115 46.5 -176.5t124 -61.5t129 64.5t49.5 171.5q0 115 -60.5 162t-206.5 49v205h37q199 0 199 190q0 88 -40 140.5t-110 52.5q-158 0 -159 -238h-219q20 467 387 467q170 0 273 -108.5t103 -288.5
q0 -195 -145 -287q182 -80 182 -340z" />
    <glyph glyph-name="four" unicode="4" 
d="M883 322h-133v-322h-234v322h-471v245l438 887h267v-911h133v-221zM522 543v633l-303 -633h303z" />
    <glyph glyph-name="five" unicode="5" 
d="M866 485q0 -238 -115.5 -381t-308.5 -143q-170 0 -276.5 110.5t-120.5 317.5h236q20 -199 163 -199q82 0 131.5 75t49.5 196t-48.5 191.5t-132.5 70.5q-100 0 -153 -105l-209 13l82 799h655v-242h-485l-43 -316q100 80 209 80q162 0 264 -131t102 -336z" />
    <glyph glyph-name="six" unicode="6" 
d="M872 479q0 -231 -110.5 -374.5t-288.5 -143.5q-422 0 -422 737q0 381 111.5 568.5t318.5 187.5q162 0 250 -86t117 -283h-234q-14 139 -135 140q-94 0 -139 -94.5t-59 -317.5q45 70 96 98.5t129 28.5q164 0 265 -127t101 -334zM637 463q0 113 -47 180.5t-125 67.5
q-82 0 -130 -68t-48 -182q0 -119 51 -195t133 -76q76 0 121 73t45 200z" />
    <glyph glyph-name="seven" unicode="7" 
d="M887 1210q-393 -532 -436 -1210h-242q37 641 426 1178h-590v252h842v-220z" />
    <glyph glyph-name="eight" unicode="8" 
d="M881 438q0 -213 -116 -345t-302 -132q-188 0 -299 123t-111 332q0 129 43 212t140 144q-78 51 -112 117.5t-34 167.5q0 178 103.5 287.5t271.5 109.5q166 0 270.5 -106.5t104.5 -276.5q0 -193 -138 -289q98 -66 138.5 -142.5t40.5 -201.5zM614 1044q0 80 -38.5 130.5
t-102.5 50.5q-72 0 -115 -48.5t-43 -128t44 -132t110 -52.5t105.5 49t39.5 131zM639 422q0 100 -48 162.5t-124 62.5q-80 0 -126 -60.5t-46 -164.5q0 -106 47 -169t125 -63q76 0 124 65t48 167z" />
    <glyph glyph-name="nine" unicode="9" 
d="M877 725q0 -365 -112 -564.5t-325 -199.5q-150 0 -247 97.5t-117 277.5h231q14 -76 46 -111t89 -35q90 0 141.5 94.5t59.5 321.5q-78 -129 -229 -129q-162 0 -262.5 129t-100.5 340q0 233 109.5 370.5t296.5 137.5q420 0 420 -729zM635 958q0 119 -47 190t-127 71
q-84 0 -129 -64.5t-45 -183.5q0 -264 170 -264q82 0 130 67t48 184z" />
    <glyph glyph-name="colon" unicode=":" horiz-adv-x="559" 
d="M406 0h-252v301h252v-301zM406 748h-252v301h252v-301z" />
    <glyph glyph-name="semicolon" unicode=";" horiz-adv-x="559" 
d="M406 41q0 -162 -70 -265.5t-182 -119.5v108q72 29 102.5 81.5t38.5 154.5h-141v301h252v-260zM406 748h-252v301h252v-301z" />
    <glyph glyph-name="less" unicode="&#x3c;" horiz-adv-x="980" 
d="M748 -199l-580 652v118l580 652v-267l-396 -444l396 -444v-267z" />
    <glyph glyph-name="equal" unicode="=" horiz-adv-x="980" 
d="M864 608h-747v176h747v-176zM864 240h-747v176h747v-176z" />
    <glyph glyph-name="greater" unicode="&#x3e;" horiz-adv-x="980" 
d="M748 453l-580 -652v267l395 444l-395 444v267l580 -652v-118z" />
    <glyph glyph-name="question" unicode="?" horiz-adv-x="1026" 
d="M934 1063q0 -119 -43 -201t-160 -186q-63 -55 -82.5 -102.5t-21.5 -147.5h-221q0 164 32.5 243t139.5 173q57 51 80.5 97t23.5 110q0 92 -44 145t-122 53t-128 -61.5t-50 -143.5v-32h-238q0 231 111 355t297 124q193 0 309.5 -116.5t116.5 -309.5zM645 0h-246v291h246
v-291z" />
    <glyph glyph-name="at" unicode="@" horiz-adv-x="1638" 
d="M1438 870q0 -238 -135.5 -413.5t-296.5 -175.5q-82 0 -93 114q-92 -115 -180 -114q-111 0 -189.5 107.5t-78.5 258.5q0 203 105.5 349.5t252.5 146.5q70 0 116 -31t87 -102l23 108h147l-98 -522q-10 -49 -10.5 -88t26.5 -39q76 0 131 107.5t55 254.5q0 229 -124.5 372
t-327.5 143q-213 0 -347 -171t-134 -444q0 -268 139 -437t360 -169q195 0 353 166h149q-111 -178 -234.5 -254t-277.5 -76q-279 0 -468 223.5t-189 548.5q0 324 188 550t461 226q250 0 420 -184.5t170 -454.5zM977 768q0 76 -38 126t-95 50q-80 0 -139.5 -84t-59.5 -196
q0 -80 36 -129.5t95 -49.5q80 0 140.5 85t60.5 198z" />
    <glyph glyph-name="A" unicode="A" horiz-adv-x="1212" 
d="M1180 0h-275l-78 303h-444l-84 -303h-266l430 1470h291zM758 555l-152 590l-155 -590h307z" />
    <glyph glyph-name="B" unicode="B" horiz-adv-x="1212" 
d="M1124 442q0 -184 -104 -311q-63 -76 -144 -103.5t-239 -27.5h-510v1470h586q174 0 273 -102t99 -281q0 -109 -34.5 -178t-112.5 -116q186 -103 186 -351zM872 461q0 88 -48 136t-134 48h-321v-393h309q194 0 194 209zM844 1063q0 156 -187 156h-288v-324h295q86 0 133 43
t47 125z" />
    <glyph glyph-name="C" unicode="C" horiz-adv-x="1212" 
d="M1149 504q-102 -543 -522 -543q-256 0 -404.5 206t-148.5 564.5t150.5 568t408.5 209.5q209 0 349 -139t167 -381h-252q-31 131 -92.5 192.5t-165.5 61.5q-145 0 -227 -136t-82 -378q0 -236 79.5 -369t221.5 -133q104 0 168.5 64.5t97.5 212.5h252z" />
    <glyph glyph-name="D" unicode="D" horiz-adv-x="1212" 
d="M1151 766q0 -338 -131 -552t-371 -214h-522v1470h532q233 0 362.5 -185t129.5 -519zM895 758q0 461 -281 461h-241v-967h245q131 0 204 133t73 373z" />
    <glyph glyph-name="E" unicode="E" horiz-adv-x="1120" 
d="M1042 0h-915v1470h887v-260h-641v-309h590v-260h-590v-381h669v-260z" />
    <glyph glyph-name="F" unicode="F" horiz-adv-x="1026" 
d="M985 1210h-606v-331h530v-261h-530v-618h-252v1470h858v-260z" />
    <glyph glyph-name="G" unicode="G" horiz-adv-x="1306" 
d="M1198 0h-168l-26 184q-88 -125 -171 -174t-206 -49q-248 0 -400.5 211t-152.5 553q0 360 159.5 572t430.5 212q215 0 356 -130t174 -365h-254q-18 106 -94 174.5t-176 68.5q-158 0 -249 -143t-91 -389q0 -240 89 -372t251 -132q113 0 188.5 74t116.5 248h-283v250h506
v-793z" />
    <glyph glyph-name="H" unicode="H" horiz-adv-x="1212" 
d="M1094 0h-252v662h-471v-662h-252v1470h252v-557h471v557h252v-1470z" />
    <glyph glyph-name="I" unicode="I" horiz-adv-x="466" 
d="M358 0h-252v1470h252v-1470z" />
    <glyph glyph-name="J" unicode="J" 
d="M813 426q0 -463 -389 -463q-246 0 -332 180q-33 63 -44 150.5t-11 261.5h235q0 -209 29 -275.5t119 -66.5q78 0 109.5 47t31.5 166v1044h252v-1044z" />
    <glyph glyph-name="K" unicode="K" horiz-adv-x="1212" 
d="M1212 0h-323l-375 645l-117 -147v-498h-252v1470h252v-598l461 598h326l-492 -602z" />
    <glyph glyph-name="L" unicode="L" horiz-adv-x="1026" 
d="M979 0h-852v1470h252v-1204h600v-266z" />
    <glyph glyph-name="M" unicode="M" horiz-adv-x="1398" 
d="M1284 0h-233v1247l-230 -1247h-248l-223 1247v-1247h-233v1470h366l222 -1167l217 1167h362v-1470z" />
    <glyph glyph-name="N" unicode="N" horiz-adv-x="1212" 
d="M1098 0h-250l-498 1055v-1055h-233v1470h264l483 -1032v1032h234v-1470z" />
    <glyph glyph-name="O" unicode="O" horiz-adv-x="1306" 
d="M1233 735q0 -362 -157.5 -568t-422.5 -206q-266 0 -422.5 207t-156.5 565q0 367 158.5 571.5t429.5 204.5q256 0 413.5 -207t157.5 -567zM981 741q0 231 -88 369.5t-236 138.5q-156 0 -243.5 -136t-87.5 -374q0 -244 87 -381t240.5 -137t240.5 138t87 382z" />
    <glyph glyph-name="P" unicode="P" horiz-adv-x="1120" 
d="M1053 1014q0 -219 -105.5 -350.5t-279.5 -131.5h-289v-532h-252v1470h551q170 0 272.5 -124.5t102.5 -331.5zM801 1008q0 113 -51.5 162t-169.5 49h-201v-435h233q189 1 189 224z" />
    <glyph glyph-name="Q" unicode="Q" horiz-adv-x="1306" 
d="M1237 59l-133 -165l-141 165q-150 -98 -312 -98q-262 0 -419.5 206t-157.5 568.5t157.5 568t422 205.5t422 -205.5t157.5 -570.5q0 -303 -127 -522zM981 735q0 238 -88 376t-240 138q-150 0 -238.5 -137t-88.5 -369q0 -244 87 -383t238 -139q68 0 137 39l-120 139
l129 166l129 -145q55 139 55 315z" />
    <glyph glyph-name="R" unicode="R" horiz-adv-x="1212" 
d="M1137 0h-279q-29 131 -29 295q0 133 -20.5 192.5t-55 72.5t-120.5 13h-260v-573h-246v1470h608q174 0 277.5 -113.5t103.5 -303.5q0 -260 -186 -348q98 -53 125.5 -133t27.5 -310q0 -125 9.5 -166t44.5 -57v-39zM864 1020q0 96 -46 147.5t-130 51.5h-315v-396h297
q100 0 147 48.5t47 148.5z" />
    <glyph glyph-name="S" unicode="S" horiz-adv-x="1120" 
d="M1057 438q0 -221 -131 -349t-359 -128q-233 0 -363 125t-138 367h241q14 -240 262 -240q117 0 181.5 49t64.5 139q0 72 -46 111t-173 76l-129 37q-233 66 -308 155.5t-75 268.5q0 215 122 337.5t337 122.5q217 0 339 -121.5t136 -353.5h-242q-14 117 -71.5 170t-169.5 53
q-100 0 -158 -48t-58 -130q0 -63 29 -98t98 -55l295 -88q168 -51 242 -143.5t74 -256.5z" />
    <glyph glyph-name="T" unicode="T" horiz-adv-x="1026" 
d="M1004 1210h-365v-1210h-252v1210h-364v260h981v-260z" />
    <glyph glyph-name="U" unicode="U" horiz-adv-x="1212" 
d="M1094 514q0 -270 -125 -411.5t-365 -141.5q-231 0 -357 140.5t-126 394.5v974h256v-954q0 -141 59.5 -218t167.5 -77q115 0 174.5 72t59.5 209v968h256v-956z" />
    <glyph glyph-name="V" unicode="V" horiz-adv-x="1120" 
d="M1087 1470l-409 -1470h-240l-405 1470h270l260 -1122l262 1122h262z" />
    <glyph glyph-name="W" unicode="W" horiz-adv-x="1585" 
d="M1561 1470l-340 -1470h-242l-188 1157l-138 -866l-51 -291h-233l-342 1470h268q164 -856 194 -1087l168 1087h269l180 -1087l199 1087h256z" />
    <glyph glyph-name="X" unicode="X" horiz-adv-x="1120" 
d="M1096 0h-308l-229 502l-242 -502h-294l389 752l-367 718h299l215 -475l221 475h291l-369 -706z" />
    <glyph glyph-name="Y" unicode="Y" horiz-adv-x="1120" 
d="M1096 1470l-404 -919v-551h-252v555l-415 915h297l249 -639l240 639h285z" />
    <glyph glyph-name="Z" unicode="Z" horiz-adv-x="1026" 
d="M985 0h-944v260l625 950h-609v260h924v-241l-633 -969h637v-260z" />
    <glyph glyph-name="bracketleft" unicode="[" horiz-adv-x="559" 
d="M518 -401h-412v1880h412v-199h-207v-1483h207v-198z" />
    <glyph glyph-name="backslash" unicode="\" horiz-adv-x="466" 
d="M522 -39h-196l-381 1548h196z" />
    <glyph glyph-name="bracketright" unicode="]" horiz-adv-x="559" 
d="M453 -401h-412v198h207v1483h-207v199h412v-1880z" />
    <glyph glyph-name="asciicircum" unicode="^" horiz-adv-x="980" 
d="M877 662h-185l-203 538l-202 -538h-183l304 768h165z" />
    <glyph glyph-name="underscore" unicode="_" 
d="M934 -256h-934v102h934v-102z" />
    <glyph glyph-name="grave" unicode="`" horiz-adv-x="559" 
d="M365 1233h-170l-246 299h258z" />
    <glyph glyph-name="a" unicode="a" 
d="M885 0h-252q-14 55 -23 129q-70 -88 -133 -123t-149 -35q-129 0 -204 86t-75 234q0 143 68.5 233t193.5 113l211 39q82 14 82 90q0 123 -145 123q-76 0 -111 -34t-45 -118h-225q20 207 112.5 294t278.5 87q174 0 269.5 -83t95.5 -232v-590q0 -143 51 -170v-43zM604 391
v139q-39 -35 -160 -59q-88 -18 -123.5 -55t-35.5 -107q0 -61 30.5 -97t81.5 -36q86 0 146.5 62.5t60.5 152.5z" />
    <glyph glyph-name="b" unicode="b" horiz-adv-x="1026" 
d="M971 557q0 -268 -102.5 -427t-274.5 -159q-178 0 -262 172v-143h-230v1470h234v-528q51 94 112.5 135t147.5 41q170 0 272.5 -153.5t102.5 -407.5zM729 541q0 154 -53 240.5t-146 86.5q-98 0 -150 -86t-52 -247q0 -158 53 -243t151 -85q90 0 143.5 91t53.5 243z" />
    <glyph glyph-name="c" unicode="c" 
d="M881 700h-238q-16 92 -52 134.5t-99 42.5q-193 0 -193 -334q0 -336 178 -336q68 0 112 52t52 138h238q-27 -207 -131.5 -316.5t-278.5 -109.5q-199 0 -305.5 145.5t-106.5 413.5q0 276 113 432t311 156q172 0 276 -105.5t124 -312.5z" />
    <glyph glyph-name="d" unicode="d" horiz-adv-x="1026" 
d="M926 0h-230v143q-84 -172 -262 -172q-172 0 -274.5 159t-102.5 427q0 254 102.5 407.5t272.5 153.5q86 0 146.5 -41t113.5 -135v528h234v-1470zM700 532q0 160 -51 248t-145 88q-96 0 -150.5 -86t-54.5 -241q0 -154 53.5 -244t143.5 -90q98 0 151 84.5t53 240.5z" />
    <glyph glyph-name="e" unicode="e" 
d="M887 465h-613q10 -137 59.5 -199.5t145.5 -62.5q121 0 156 119h242q-100 -350 -402 -351q-209 0 -322.5 150.5t-113.5 427.5q0 266 112.5 417.5t311.5 151.5q205 0 314.5 -155.5t109.5 -446.5v-51zM645 653q-25 229 -184 230q-78 0 -121 -55.5t-59 -174.5h364z" />
    <glyph glyph-name="f" unicode="f" horiz-adv-x="559" 
d="M535 885h-156v-885h-234v885h-129v205h129v88q0 162 67 236.5t208 74.5q57 0 110 -4v-232h-67q-55 0 -69.5 -21.5t-14.5 -98.5v-43h156v-205z" />
    <glyph glyph-name="g" unicode="g" horiz-adv-x="1026" 
d="M928 57q0 -270 -108.5 -385.5t-327.5 -115.5q-360 0 -406 327h256q10 -57 46 -82.5t110 -25.5q102 0 148 58t46 190v141q-45 -94 -98 -132t-143 -38q-176 0 -279.5 150.5t-103.5 410.5q0 256 102 409.5t270 153.5q92 0 154.5 -46t107.5 -150v168h226v-1033zM694 547
q0 143 -54 232t-142 89t-138.5 -86t-50.5 -235q0 -145 50.5 -228t138.5 -83q94 0 145 82t51 229z" />
    <glyph glyph-name="h" unicode="h" horiz-adv-x="1026" 
d="M918 0h-234v662q0 113 -36 164t-116 51q-88 0 -139 -68t-51 -184v-625h-233v1470h233v-530q72 178 268 178q139 0 223.5 -99t84.5 -265v-754z" />
    <glyph glyph-name="i" unicode="i" horiz-adv-x="466" 
d="M350 0h-233v1090h233v-1090zM352 1266h-233v235h233v-235z" />
    <glyph glyph-name="j" unicode="j" horiz-adv-x="466" 
d="M350 -115q0 -182 -61.5 -252.5t-222.5 -70.5h-62v229h43q70 0 70 100v1199h233v-1205zM352 1266h-233v235h233v-235z" />
    <glyph glyph-name="k" unicode="k" 
d="M944 0h-282l-213 467l-99 -123v-344h-233v1470h233v-794l295 414h289l-316 -422z" />
    <glyph glyph-name="l" unicode="l" horiz-adv-x="466" 
d="M350 0h-233v1470h233v-1470z" />
    <glyph glyph-name="m" unicode="m" horiz-adv-x="1492" 
d="M1386 0h-233v662q0 215 -133 215q-158 0 -158 -224v-653h-233v655q0 123 -31 172.5t-109 49.5q-150 0 -149 -213v-664h-234v1090h226v-166q41 102 104.5 148t157.5 46q84 0 136 -37t106 -137q51 94 108 134t141 40q135 0 218 -100t83 -264v-754z" />
    <glyph glyph-name="n" unicode="n" horiz-adv-x="1026" 
d="M918 0h-234v662q0 113 -36 164t-116 51q-88 0 -139 -68t-51 -184v-625h-233v1090h225v-166q92 195 274 194q141 0 225.5 -98t84.5 -266v-754z" />
    <glyph glyph-name="o" unicode="o" horiz-adv-x="1026" 
d="M971 543q0 -260 -125 -416t-332 -156t-332 156t-125 416q0 264 125 419.5t338 155.5q205 0 328 -157.5t123 -417.5zM729 545q0 160 -55.5 246t-157.5 86q-217 0 -217 -332q0 -162 55.5 -247t159.5 -85t159.5 85t55.5 247z" />
    <glyph glyph-name="p" unicode="p" horiz-adv-x="1026" 
d="M971 557q0 -268 -102.5 -427t-276.5 -159q-90 0 -148.5 40t-105.5 134v-569h-234v1514h226v-164q51 102 112.5 147t151.5 45q170 0 273.5 -153.5t103.5 -407.5zM729 543q0 152 -53 238.5t-148 86.5q-199 0 -198 -336q0 -158 52 -241.5t150 -83.5q90 0 143.5 91t53.5 245z
" />
    <glyph glyph-name="q" unicode="q" horiz-adv-x="1026" 
d="M928 -424h-234v565q-45 -90 -104.5 -130t-151.5 -40q-172 0 -276.5 155t-104.5 409q0 260 107.5 421.5t281.5 161.5q90 0 150.5 -46t105.5 -150v168h226v-1514zM698 539q0 152 -54 240.5t-146 88.5q-94 0 -146.5 -89t-52.5 -251q0 -315 199 -315q96 0 148 85t52 241z" />
    <glyph glyph-name="r" unicode="r" horiz-adv-x="653" 
d="M627 823q-33 4 -60 4q-227 0 -227 -260v-567h-234v1090h226v-195q53 125 107.5 174t140.5 49q20 0 47 -4v-291z" />
    <glyph glyph-name="s" unicode="s" 
d="M872 340q0 -172 -106.5 -270.5t-290.5 -98.5q-389 0 -424 377h242q6 -158 190 -158q72 0 113 31t41 82q0 82 -195 121q-186 35 -272 114.5t-86 217.5q0 168 99.5 265t271.5 97q178 0 272 -82t119 -278h-232q-12 80 -47 110.5t-112 30.5q-141 0 -142 -102q0 -84 193 -119
q193 -37 279.5 -121t86.5 -217z" />
    <glyph glyph-name="t" unicode="t" horiz-adv-x="559" 
d="M518 -8q-80 -4 -112 -4h-31q-129 0 -183.5 53t-54.5 182v662h-121v205h121v294h234v-294h147v-205h-147v-592q0 -57 17.5 -72.5t78.5 -15.5q25 0 51 4v-217z" />
    <glyph glyph-name="u" unicode="u" horiz-adv-x="1026" 
d="M915 0h-225v160q-90 -188 -278 -189q-143 0 -222 104.5t-79 297.5v717h233v-676q0 -201 152 -201q88 0 137 66.5t49 181.5v629h233v-1090z" />
    <glyph glyph-name="v" unicode="v" 
d="M911 1090l-321 -1090h-248l-319 1090h262l186 -811l191 811h249z" />
    <glyph glyph-name="w" unicode="w" horiz-adv-x="1306" 
d="M1292 1090l-258 -1090h-241l-142 805l-141 -805h-242l-252 1090h250l142 -793l129 793h235l137 -793l142 793h241z" />
    <glyph glyph-name="x" unicode="x" 
d="M909 0h-291l-155 328l-154 -328h-284l305 555l-293 535h285l151 -318l150 318h276l-295 -535z" />
    <glyph glyph-name="y" unicode="y" 
d="M905 1090l-307 -1072q-90 -315 -139 -380q-55 -76 -201 -76l-113 4v229q33 -4 50 -4q76 0 105.5 32t45.5 132l-330 1135h263l192 -811l184 811h250z" />
    <glyph glyph-name="z" unicode="z" horiz-adv-x="839" 
d="M807 0h-774v223l461 637h-428v230h725v-236l-453 -618h469v-236z" />
    <glyph glyph-name="braceleft" unicode="{" horiz-adv-x="653" 
d="M612 -401h-139q-102 0 -168.5 79.5t-66.5 200.5v410q0 143 -158 155v189q76 6 117 46t41 109v410q0 121 66.5 201t168.5 80h139v-181h-75q-94 0 -95 -135v-401q0 -84 -53 -144.5t-147 -78.5q94 -18 147 -80t53 -144v-401q0 -135 95 -135h75v-180z" />
    <glyph glyph-name="bar" unicode="|" horiz-adv-x="471" 
d="M324 -401h-177v1880h177v-1880z" />
    <glyph glyph-name="braceright" unicode="}" horiz-adv-x="653" 
d="M573 444q-158 -12 -157 -155v-410q0 -121 -67.5 -200.5t-168.5 -79.5h-139v180h76q94 0 94 135v401q0 82 53 143.5t148 80.5q-94 18 -147.5 78.5t-53.5 144.5v401q0 135 -94 135h-76v181h139q100 0 168 -80t68 -201v-410q0 -70 41 -109.5t116 -45.5v-189z" />
    <glyph glyph-name="asciitilde" unicode="~" horiz-adv-x="980" 
d="M879 547q-53 -106 -101.5 -149.5t-118.5 -43.5q-37 0 -162.5 52.5t-164.5 52.5q-72 0 -115 -76l-115 113q53 106 101.5 149t118.5 43q37 0 161.5 -52t165.5 -52q72 0 115 73z" />
    <glyph glyph-name="uni00A0" unicode="&#xa0;" horiz-adv-x="466" 
 />
    <glyph glyph-name="exclamdown" unicode="&#xa1;" horiz-adv-x="559" 
d="M401 799h-245v291h245v-291zM408 -381h-258v375l67 688h123l68 -688v-375z" />
    <glyph glyph-name="cent" unicode="&#xa2;" 
d="M881 700h-238q-18 98 -57 140l-148 -625q16 -8 41 -8q66 0 111 53t51 137h238q-27 -207 -131.5 -316.5t-278.5 -109.5q-51 0 -84 9l-51 -222h-88l57 246q-127 68 -186.5 194t-59.5 328q0 283 112 437.5t316 154.5q35 0 76 -6l41 174h86l-45 -201q218 -96 238 -385z
M506 877h-21q-90 0 -138 -86t-48 -248q0 -190 63 -279z" />
    <glyph glyph-name="sterling" unicode="&#xa3;" 
d="M909 59q-127 -92 -250 -92q-78 0 -208 53q-70 29 -121 29q-35 0 -67 -12t-118 -60l-92 199q80 55 133.5 141t53.5 158q0 78 -37 182h-156v123h98q-70 178 -69 277q0 180 112.5 296.5t288.5 116.5q186 0 290.5 -117.5t115.5 -355.5h-219q-20 150 -60.5 197t-120.5 47
q-76 0 -124 -53t-48 -137q0 -47 82 -271h240v-123h-201q8 -63 8 -110q0 -98 -39 -171t-141 -175q127 59 205 59q33 0 113.5 -25.5t93.5 -25.5q72 0 168 74z" />
    <glyph glyph-name="currency" unicode="&#xa4;" 
d="M852 544.5q0 -108.5 -57 -200.5l28 -27l-125 -124l-26 28q-92 -57 -201 -57t-201 57l-26 -28l-125 124l28 27q-57 92 -57 200.5t57 200.5l-28 27l125 125l26 -29q92 57 201 57.5t201 -57.5l26 29l125 -125l-28 -27q57 -92 57 -200.5zM676 545q0 84 -60.5 144.5
t-144.5 60.5t-144.5 -60.5t-60.5 -144.5t60.5 -144.5t144.5 -60.5t144.5 60.5t60.5 144.5z" />
    <glyph glyph-name="yen" unicode="&#xa5;" 
d="M948 1430l-252 -601h226v-122h-279l-63 -152h342v-123h-344v-432h-211v432h-340v123h340l-68 152h-272v122h219l-260 601h252l239 -603l232 603h239z" />
    <glyph glyph-name="brokenbar" unicode="&#xa6;" horiz-adv-x="471" 
d="M324 727h-177v752h177v-752zM324 -401h-177v751h177v-751z" />
    <glyph glyph-name="section" unicode="&#xa7;" 
d="M877 569q0 -190 -160 -295q104 -113 104 -268q0 -168 -102.5 -275.5t-263.5 -107.5q-154 0 -244 99.5t-105 283.5h222q18 -164 143 -164q57 0 91 40t34 106q0 43 -21.5 73.5t-76.5 63.5l-258 160q-98 61 -140.5 134t-42.5 183q0 94 35 156.5t121 126.5q-86 106 -86 239
q0 158 96 261.5t246 103.5q305 0 336 -375h-213q-14 156 -129 156q-53 0 -88 -33t-35 -84q0 -66 63 -104l273 -166q201 -126 201 -314zM668 498q0 76 -95 135l-245 151q-72 -37 -72 -125q0 -70 78 -120l262 -172q72 51 72 131z" />
    <glyph glyph-name="dieresis" unicode="&#xa8;" horiz-adv-x="559" 
d="M209 1266h-197v235h197v-235zM547 1266h-197v235h197v-235z" />
    <glyph glyph-name="copyright" unicode="&#xa9;" horiz-adv-x="1236" 
d="M1196 674q0 -289 -163 -501t-414.5 -212t-414.5 212t-163 501t163 500.5t414.5 211.5t414.5 -211.5t163 -500.5zM1081 673.5q0 241.5 -128 420t-334.5 178.5t-334.5 -178.5t-128 -420t128 -419.5t334.5 -178t334.5 178t128 419.5zM938 569q-59 -307 -311 -307
q-152 0 -240 109.5t-88 300t89 303t241 112.5q127 0 212 -78.5t95 -215.5h-168q-31 131 -135 131q-78 0 -120 -66.5t-42 -185.5q0 -115 42 -180.5t116 -65.5q109 0 139 143h170z" />
    <glyph glyph-name="ordfeminine" unicode="&#xaa;" horiz-adv-x="620" 
d="M584 838h-164q-8 25 -14 77q-80 -94 -185 -94q-84 0 -134 51.5t-50 139.5q0 84 46 141t126 72l139 22q53 8 53 47q0 68 -94 68q-49 0 -71.5 -18.5t-30.5 -63.5h-148q16 123 74.5 176t179.5 53q113 0 175.5 -50t62.5 -140v-354q0 -86 35 -101v-26zM401 1075v82
q-18 -12 -74.5 -25.5t-94 -37t-37.5 -70.5q0 -76 71 -76q57 0 96 37t39 90zM561 565h-508v164h508v-164z" />
    <glyph glyph-name="guillemotleft" unicode="&#xab;" 
d="M428 156l-281 295v245l281 295v-237l-168 -181l168 -180v-237zM786 156l-280 295v245l280 295v-237l-168 -181l168 -180v-237z" />
    <glyph glyph-name="logicalnot" unicode="&#xac;" horiz-adv-x="980" 
d="M864 784v-456h-176v280h-571v176h747z" />
    <glyph glyph-name="uni00AD" unicode="&#xad;" horiz-adv-x="559" 
d="M514 440h-469v267h469v-267z" />
    <glyph glyph-name="registered" unicode="&#xae;" horiz-adv-x="1236" 
d="M1196 674q0 -289 -163 -501t-414.5 -212t-414.5 212t-163 501t163 500.5t414.5 211.5t414.5 -211.5t163 -500.5zM1081 673.5q0 241.5 -128 420t-334.5 178.5t-334.5 -178.5t-128 -420t128 -419.5t334.5 -178t334.5 178t128 419.5zM918 326v-43h-181q-20 82 -20 166
q0 88 -18.5 108.5t-80.5 20.5h-133v-295h-166v784h359q104 0 166.5 -62.5t62.5 -166.5q0 -125 -90 -179q43 -27 57.5 -71.5t14.5 -157.5q0 -66 4.5 -82t24.5 -22zM737 821q0 90 -86 90h-166v-178h156q96 0 96 88z" />
    <glyph glyph-name="macron" unicode="&#xaf;" horiz-adv-x="559" 
d="M569 1309h-579v149h579v-149z" />
    <glyph glyph-name="degree" unicode="&#xb0;" horiz-adv-x="671" 
d="M575 1165q0 -121 -70.5 -207t-168.5 -86t-169 86t-71 207t71 207t171 86q96 0 166.5 -87t70.5 -206zM481 1165.5q0 71.5 -43 123.5t-100 52q-61 0 -104.5 -51t-43.5 -125q0 -72 43 -124t102.5 -52t102.5 52.5t43 124z" />
    <glyph glyph-name="plusminus" unicode="&#xb1;" horiz-adv-x="980" 
d="M864 600h-284v-266h-177v266h-286v176h286v287h177v-287h284v-176zM864 0h-747v176h747v-176z" />
    <glyph glyph-name="uni00B2" unicode="&#xb2;" horiz-adv-x="559" 
d="M545 580h-531q8 135 56.5 214.5t191.5 192.5q70 57 95.5 103.5t25.5 109.5q0 49 -30.5 84t-71.5 35q-55 0 -81 -41t-30 -135h-147q12 336 256 336q117 0 190.5 -83t73.5 -216q0 -109 -37 -168.5t-164 -159.5q-88 -70 -111 -104h314v-168z" />
    <glyph glyph-name="uni00B3" unicode="&#xb3;" horiz-adv-x="559" 
d="M547 856q0 -133 -75 -217t-193 -84q-123 0 -188.5 72.5t-76.5 242.5h150q2 -162 110.5 -161.5t108.5 145.5q0 72 -36 99.5t-130 27.5v131h25q66 0 94.5 24.5t28.5 82.5q0 106 -93 106q-98 0 -102 -127h-141q2 141 68.5 211t183.5 70q111 0 177 -65.5t66 -174.5
q0 -121 -96 -174q119 -49 119 -209z" />
    <glyph glyph-name="acute" unicode="&#xb4;" horiz-adv-x="559" 
d="M610 1532l-245 -299h-170l157 299h258z" />
    <glyph glyph-name="uni00B5" unicode="&#xb5;" horiz-adv-x="1026" 
d="M915 0h-225v160q-88 -188 -223 -189q-76 0 -123 54v-449h-233v1514h233v-676q0 -201 152 -201q88 0 137 66.5t49 181.5v629h233v-1090z" />
    <glyph glyph-name="paragraph" unicode="&#xb6;" 
d="M905 -391h-188v1651h-170v-1651h-189v1102q-373 18 -372 360q0 184 101 273.5t308 89.5h510v-1825z" />
    <glyph glyph-name="periodcentered" unicode="&#xb7;" horiz-adv-x="466" 
d="M360 512q0 -53 -36.5 -90t-90 -37t-90.5 37t-37 90t37 90t90.5 37t90 -37t36.5 -90z" />
    <glyph glyph-name="cedilla" unicode="&#xb8;" horiz-adv-x="559" 
d="M412 -276q0 -92 -59.5 -154t-153.5 -62q-74 0 -189 52l37 98q92 -33 127 -33q39 0 59.5 28t20.5 64q0 31 -19.5 52.5t-46.5 21.5q-20 0 -65 -16l-35 41l92 188h99l-56 -121h41q66 0 107 -44.5t41 -114.5z" />
    <glyph glyph-name="uni00B9" unicode="&#xb9;" horiz-adv-x="559" 
d="M397 580h-170v596h-184v127h23q176 0 188 151h143v-874z" />
    <glyph glyph-name="ordmasculine" unicode="&#xba;" horiz-adv-x="612" 
d="M604 1165.5q0 -151.5 -83 -248t-214 -96.5q-133 0 -215 95.5t-82 248.5q0 156 83 250t218 94q129 0 211 -96t82 -247.5zM440 1165q0 86 -36.5 141.5t-94.5 55.5q-61 0 -98 -54.5t-37 -142.5t37 -142t96.5 -54t96 54t36.5 142zM557 565h-502v164h502v-164z" />
    <glyph glyph-name="guillemotright" unicode="&#xbb;" 
d="M786 451l-280 -295v237l168 180l-168 181v237l280 -295v-245zM428 451l-281 -295v237l168 180l-168 181v237l281 -295v-245z" />
    <glyph glyph-name="onequarter" unicode="&#xbc;" horiz-adv-x="1400" 
d="M1286 184h-84v-184h-160v184h-307v150l285 534h182v-544h84v-140zM1077 1454l-717 -1505h-133l719 1505h131zM397 580h-170v596h-184v127h23q176 0 188 151h143v-874zM1053 322v380l-197 -380h197z" />
    <glyph glyph-name="onehalf" unicode="&#xbd;" horiz-adv-x="1400" 
d="M1077 1454l-717 -1505h-133l719 1505h131zM397 580h-170v596h-184v127h23q176 0 188 151h143v-874zM1333 0h-528q6 135 54 215t192 193q70 57 95 103t25 110q0 49 -29.5 83.5t-72.5 34.5q-102 0 -108 -176h-148q2 168 69.5 252t184.5 84t190.5 -83t73.5 -216
q0 -109 -37 -169t-164 -159q-82 -66 -110 -104h313v-168z" />
    <glyph glyph-name="threequarters" unicode="&#xbe;" horiz-adv-x="1400" 
d="M1341 184h-84v-184h-159v184h-307v150l284 534h182v-544h84v-140zM1151 1454l-717 -1505h-133l719 1505h131zM561 856q0 -133 -74.5 -217t-195.5 -84q-250 0 -264 315h151l-2 -22q0 -63 31 -101t82 -38q109 0 108 145q0 72 -36.5 99.5t-131.5 27.5v131h25q66 0 94.5 24.5
t28.5 82.5q0 106 -92 106q-98 0 -103 -127h-143q14 281 252 281q111 0 178.5 -65.5t67.5 -174.5q0 -121 -97 -174q121 -49 121 -209zM1102 324v370l-193 -370h193z" />
    <glyph glyph-name="questiondown" unicode="&#xbf;" horiz-adv-x="1026" 
d="M926 80q0 -231 -110.5 -355t-297.5 -124q-193 0 -309.5 116.5t-116.5 309.5q0 119 43 200.5t160 186.5q63 55 82.5 102t21.5 148h222q0 -164 -33 -243t-139 -173q-57 -51 -81 -97.5t-24 -109.5q0 -92 44 -145.5t122 -53.5t128 61.5t50 143.5v33h238zM627 799h-246v291
h246v-291z" />
    <glyph glyph-name="Agrave" unicode="&#xc0;" horiz-adv-x="1212" 
d="M1180 0h-275l-78 303h-444l-84 -303h-266l430 1470h291zM758 555l-152 590l-155 -590h307zM690 1614h-160l-256 258h269z" />
    <glyph glyph-name="Aacute" unicode="&#xc1;" horiz-adv-x="1212" 
d="M1180 0h-275l-78 303h-444l-84 -303h-266l430 1470h291zM758 555l-152 590l-155 -590h307zM944 1872l-256 -258h-160l148 258h268z" />
    <glyph glyph-name="Acircumflex" unicode="&#xc2;" horiz-adv-x="1212" 
d="M1180 0h-275l-78 303h-444l-84 -303h-266l430 1470h291zM758 555l-152 590l-155 -590h307zM924 1614h-191l-127 127l-125 -127h-190l211 258h211z" />
    <glyph glyph-name="Atilde" unicode="&#xc3;" horiz-adv-x="1212" 
d="M1180 0h-275l-78 303h-444l-84 -303h-266l430 1470h291zM758 555l-152 590l-155 -590h307zM918 1874q-41 -246 -181 -246q-23 0 -127 37t-125 37q-59 0 -77 -88h-107q43 252 203 252q12 0 113.5 -37t111.5 -37q59 0 80 82h109z" />
    <glyph glyph-name="Adieresis" unicode="&#xc4;" horiz-adv-x="1212" 
d="M1180 0h-275l-78 303h-444l-84 -303h-266l430 1470h291zM758 555l-152 590l-155 -590h307zM539 1626h-197v236h197v-236zM877 1626h-197v236h197v-236z" />
    <glyph glyph-name="Aring" unicode="&#xc5;" horiz-adv-x="1212" 
d="M1180 0h-275l-78 303h-444l-84 -303h-266l430 1470h291zM758 555l-152 590l-155 -590h307zM823 1782q0 -72 -63.5 -126t-149.5 -54t-149.5 54t-63.5 130q0 72 64.5 125t148.5 53t148.5 -54t64.5 -128zM717 1782q0 37 -31 62.5t-76 25.5q-43 0 -74.5 -25.5t-31.5 -60.5
q0 -37 30.5 -62.5t75.5 -25.5t76 25.5t31 60.5z" />
    <glyph glyph-name="AE" unicode="&#xc6;" horiz-adv-x="1679" 
d="M1602 0h-881v313h-361l-88 -313h-264l441 1470h1140v-260h-622v-309h561v-260h-561v-381h635v-260zM721 555v655h-109l-186 -655h295z" />
    <glyph glyph-name="Ccedilla" unicode="&#xc7;" horiz-adv-x="1212" 
d="M1149 504q-98 -516 -479 -541l-37 -80h41q66 0 106.5 -45t40.5 -114q0 -92 -59.5 -154t-153.5 -62q-74 0 -188 52l37 98q92 -33 127 -33q39 0 59.5 28t20.5 64q0 31 -19.5 52.5t-46.5 21.5q-20 0 -66 -16l-34 41l71 147q-231 23 -363 226.5t-132 541.5q0 358 150.5 568
t408.5 210q209 0 349 -139t167 -381h-252q-31 131 -92.5 192.5t-165.5 61.5q-145 0 -227 -136t-82 -378q0 -236 79.5 -369t221.5 -133q104 0 168.5 64.5t97.5 212.5h252z" />
    <glyph glyph-name="Egrave" unicode="&#xc8;" horiz-adv-x="1120" 
d="M1042 0h-915v1470h887v-260h-641v-309h590v-260h-590v-381h669v-260zM653 1614h-159l-256 258h268z" />
    <glyph glyph-name="Eacute" unicode="&#xc9;" horiz-adv-x="1120" 
d="M1042 0h-915v1470h887v-260h-641v-309h590v-260h-590v-381h669v-260zM907 1872l-256 -258h-159l147 258h268z" />
    <glyph glyph-name="Ecircumflex" unicode="&#xca;" horiz-adv-x="1120" 
d="M1042 0h-915v1470h887v-260h-641v-309h590v-260h-590v-381h669v-260zM887 1614h-191l-127 127l-125 -127h-190l211 258h211z" />
    <glyph glyph-name="Edieresis" unicode="&#xcb;" horiz-adv-x="1120" 
d="M1042 0h-915v1470h887v-260h-641v-309h590v-260h-590v-381h669v-260zM502 1626h-197v236h197v-236zM840 1626h-197v236h197v-236z" />
    <glyph glyph-name="Igrave" unicode="&#xcc;" horiz-adv-x="466" 
d="M358 0h-252v1470h252v-1470zM358 1614h-159l-256 258h268z" />
    <glyph glyph-name="Iacute" unicode="&#xcd;" horiz-adv-x="466" 
d="M358 0h-252v1470h252v-1470zM524 1872l-256 -258h-159l147 258h268z" />
    <glyph glyph-name="Icircumflex" unicode="&#xce;" horiz-adv-x="466" 
d="M358 0h-252v1470h252v-1470zM549 1614h-191l-127 127l-125 -127h-190l211 258h211z" />
    <glyph glyph-name="Idieresis" unicode="&#xcf;" horiz-adv-x="466" 
d="M358 0h-252v1470h252v-1470zM164 1626h-197v236h197v-236zM502 1626h-197v236h197v-236z" />
    <glyph glyph-name="Eth" unicode="&#xd0;" horiz-adv-x="1212" 
d="M1151 768q0 -340 -129 -554t-373 -214h-522v649h-135v252h135v569h532q233 0 362.5 -184t129.5 -518zM895 756q0 463 -279 463h-243v-318h280v-252h-280v-397h248q129 0 201.5 133t72.5 371z" />
    <glyph glyph-name="Ntilde" unicode="&#xd1;" horiz-adv-x="1212" 
d="M1098 0h-250l-498 1055v-1055h-233v1470h264l483 -1032v1032h234v-1470zM918 1874q-41 -246 -181 -246q-23 0 -127 37t-125 37q-59 0 -77 -88h-107q43 252 203 252q12 0 113.5 -37t111.5 -37q59 0 80 82h109z" />
    <glyph glyph-name="Ograve" unicode="&#xd2;" horiz-adv-x="1306" 
d="M1233 735q0 -362 -157.5 -568t-422.5 -206q-266 0 -422.5 207t-156.5 565q0 367 158.5 571.5t429.5 204.5q256 0 413.5 -207t157.5 -567zM981 741q0 231 -88 369.5t-236 138.5q-156 0 -243.5 -136t-87.5 -374q0 -244 87 -381t240.5 -137t240.5 138t87 382zM743 1614h-159
l-256 258h268z" />
    <glyph glyph-name="Oacute" unicode="&#xd3;" horiz-adv-x="1306" 
d="M1233 735q0 -362 -157.5 -568t-422.5 -206q-266 0 -422.5 207t-156.5 565q0 367 158.5 571.5t429.5 204.5q256 0 413.5 -207t157.5 -567zM981 741q0 231 -88 369.5t-236 138.5q-156 0 -243.5 -136t-87.5 -374q0 -244 87 -381t240.5 -137t240.5 138t87 382zM997 1872
l-256 -258h-159l147 258h268z" />
    <glyph glyph-name="Ocircumflex" unicode="&#xd4;" horiz-adv-x="1306" 
d="M1233 735q0 -362 -157.5 -568t-422.5 -206q-266 0 -422.5 207t-156.5 565q0 367 158.5 571.5t429.5 204.5q256 0 413.5 -207t157.5 -567zM981 741q0 231 -88 369.5t-236 138.5q-156 0 -243.5 -136t-87.5 -374q0 -244 87 -381t240.5 -137t240.5 138t87 382zM977 1614h-191
l-127 127l-124 -127h-191l211 258h211z" />
    <glyph glyph-name="Otilde" unicode="&#xd5;" horiz-adv-x="1306" 
d="M1233 735q0 -362 -157.5 -568t-422.5 -206q-266 0 -422.5 207t-156.5 565q0 367 158.5 571.5t429.5 204.5q256 0 413.5 -207t157.5 -567zM981 741q0 231 -88 369.5t-236 138.5q-156 0 -243.5 -136t-87.5 -374q0 -244 87 -381t240.5 -137t240.5 138t87 382zM971 1874
q-41 -246 -180 -246q-23 0 -127.5 37t-124.5 37q-59 0 -78 -88h-107q43 252 203 252q12 0 113.5 -37t111.5 -37q59 0 80 82h109z" />
    <glyph glyph-name="Odieresis" unicode="&#xd6;" horiz-adv-x="1306" 
d="M1233 735q0 -362 -157.5 -568t-422.5 -206q-266 0 -422.5 207t-156.5 565q0 367 158.5 571.5t429.5 204.5q256 0 413.5 -207t157.5 -567zM981 741q0 231 -88 369.5t-236 138.5q-156 0 -243.5 -136t-87.5 -374q0 -244 87 -381t240.5 -137t240.5 138t87 382zM592 1626h-197
v236h197v-236zM930 1626h-197v236h197v-236z" />
    <glyph glyph-name="multiply" unicode="&#xd7;" horiz-adv-x="980" 
d="M817 311l-125 -125l-200 203l-203 -203l-125 125l203 203l-203 201l125 125l203 -203l200 203l125 -125l-201 -201z" />
    <glyph glyph-name="Oslash" unicode="&#xd8;" horiz-adv-x="1306" 
d="M1249 1448l-141 -188q125 -215 125 -521q0 -365 -157.5 -571.5t-422.5 -206.5q-219 0 -389 168l-139 -184l-70 78l144 190q-125 215 -125 518q0 365 157.5 571.5t419.5 206.5q211 0 391 -166l138 183zM881 1128q-98 121 -228 121q-152 0 -239.5 -138t-87.5 -378
q0 -164 45 -287zM981 735q0 172 -47 291l-510 -682q96 -123 229 -123q152 0 240 138t88 376z" />
    <glyph glyph-name="Ugrave" unicode="&#xd9;" horiz-adv-x="1212" 
d="M1094 514q0 -270 -125 -411.5t-365 -141.5q-231 0 -357 140.5t-126 394.5v974h256v-954q0 -141 59.5 -218t167.5 -77q115 0 174.5 72t59.5 209v968h256v-956zM690 1614h-160l-256 258h269z" />
    <glyph glyph-name="Uacute" unicode="&#xda;" horiz-adv-x="1212" 
d="M1094 514q0 -270 -125 -411.5t-365 -141.5q-231 0 -357 140.5t-126 394.5v974h256v-954q0 -141 59.5 -218t167.5 -77q115 0 174.5 72t59.5 209v968h256v-956zM944 1872l-256 -258h-160l148 258h268z" />
    <glyph glyph-name="Ucircumflex" unicode="&#xdb;" horiz-adv-x="1212" 
d="M1094 514q0 -270 -125 -411.5t-365 -141.5q-231 0 -357 140.5t-126 394.5v974h256v-954q0 -141 59.5 -218t167.5 -77q115 0 174.5 72t59.5 209v968h256v-956zM924 1614h-191l-127 127l-125 -127h-190l211 258h211z" />
    <glyph glyph-name="Udieresis" unicode="&#xdc;" horiz-adv-x="1212" 
d="M1094 514q0 -270 -125 -411.5t-365 -141.5q-231 0 -357 140.5t-126 394.5v974h256v-954q0 -141 59.5 -218t167.5 -77q115 0 174.5 72t59.5 209v968h256v-956zM539 1626h-197v236h197v-236zM877 1626h-197v236h197v-236z" />
    <glyph glyph-name="Yacute" unicode="&#xdd;" horiz-adv-x="1120" 
d="M1096 1470l-404 -919v-551h-252v555l-415 915h297l249 -639l240 639h285zM903 1872l-256 -258h-160l148 258h268z" />
    <glyph glyph-name="Thorn" unicode="&#xde;" horiz-adv-x="1120" 
d="M1053 807q0 -219 -105.5 -350t-279.5 -131h-289v-326h-252v1470h252v-200h299q170 0 272.5 -126t102.5 -337zM801 803q0 113 -52.5 164t-168.5 51h-201v-440h233q189 0 189 225z" />
    <glyph glyph-name="germandbls" unicode="&#xdf;" horiz-adv-x="1026" 
d="M973 473q0 -229 -109.5 -365.5t-296.5 -136.5q-35 0 -98 13v225h8q8 -2 41 -2q219 0 219 252q0 129 -56 184t-200 68v198q109 4 149 42t40 134q0 88 -43 135.5t-121 47.5q-72 0 -114 -49.5t-42 -133.5v-1085h-233v1104q0 180 106.5 286.5t288.5 106.5q184 0 288.5 -103.5
t104.5 -285.5t-123 -266q104 -66 147.5 -149t43.5 -220z" />
    <glyph glyph-name="agrave" unicode="&#xe0;" 
d="M885 0h-252q-14 55 -23 129q-70 -88 -133 -123t-149 -35q-129 0 -204 86t-75 234q0 143 68.5 233t193.5 113l211 39q82 14 82 90q0 123 -145 123q-76 0 -111 -34t-45 -118h-225q20 207 112.5 294t278.5 87q174 0 269.5 -83t95.5 -232v-590q0 -143 51 -170v-43zM604 391
v139q-39 -35 -160 -59q-88 -18 -123.5 -55t-35.5 -107q0 -61 30.5 -97t81.5 -36q86 0 146.5 62.5t60.5 152.5zM555 1233h-170l-246 299h258z" />
    <glyph glyph-name="aacute" unicode="&#xe1;" 
d="M885 0h-252q-14 55 -23 129q-70 -88 -133 -123t-149 -35q-129 0 -204 86t-75 234q0 143 68.5 233t193.5 113l211 39q82 14 82 90q0 123 -145 123q-76 0 -111 -34t-45 -118h-225q20 207 112.5 294t278.5 87q174 0 269.5 -83t95.5 -232v-590q0 -143 51 -170v-43zM604 391
v139q-39 -35 -160 -59q-88 -18 -123.5 -55t-35.5 -107q0 -61 30.5 -97t81.5 -36q86 0 146.5 62.5t60.5 152.5zM799 1532l-246 -299h-170l158 299h258z" />
    <glyph glyph-name="acircumflex" unicode="&#xe2;" 
d="M885 0h-252q-14 55 -23 129q-70 -88 -133 -123t-149 -35q-129 0 -204 86t-75 234q0 143 68.5 233t193.5 113l211 39q82 14 82 90q0 123 -145 123q-76 0 -111 -34t-45 -118h-225q20 207 112.5 294t278.5 87q174 0 269.5 -83t95.5 -232v-590q0 -143 51 -170v-43zM604 391
v139q-39 -35 -160 -59q-88 -18 -123.5 -55t-35.5 -107q0 -61 30.5 -97t81.5 -36q86 0 146.5 62.5t60.5 152.5zM764 1233h-191l-106 168l-105 -168h-190l190 299h211z" />
    <glyph glyph-name="atilde" unicode="&#xe3;" 
d="M885 0h-252q-14 55 -23 129q-70 -88 -133 -123t-149 -35q-129 0 -204 86t-75 234q0 143 68.5 233t193.5 113l211 39q82 14 82 90q0 123 -145 123q-76 0 -111 -34t-45 -118h-225q20 207 112.5 294t278.5 87q174 0 269.5 -83t95.5 -232v-590q0 -143 51 -170v-43zM604 391
v139q-39 -35 -160 -59q-88 -18 -123.5 -55t-35.5 -107q0 -61 30.5 -97t81.5 -36q86 0 146.5 62.5t60.5 152.5zM776 1513q-39 -246 -180 -245q-23 0 -127 36.5t-125 36.5q-59 0 -78 -88h-106q41 252 202 252q12 0 114 -36.5t112 -36.5q59 0 80 81h108z" />
    <glyph glyph-name="adieresis" unicode="&#xe4;" 
d="M885 0h-252q-14 55 -23 129q-70 -88 -133 -123t-149 -35q-129 0 -204 86t-75 234q0 143 68.5 233t193.5 113l211 39q82 14 82 90q0 123 -145 123q-76 0 -111 -34t-45 -118h-225q20 207 112.5 294t278.5 87q174 0 269.5 -83t95.5 -232v-590q0 -143 51 -170v-43zM604 391
v139q-39 -35 -160 -59q-88 -18 -123.5 -55t-35.5 -107q0 -61 30.5 -97t81.5 -36q86 0 146.5 62.5t60.5 152.5zM397 1266h-196v235h196v-235zM735 1266h-196v235h196v-235z" />
    <glyph glyph-name="aring" unicode="&#xe5;" 
d="M885 0h-252q-14 55 -23 129q-70 -88 -133 -123t-149 -35q-129 0 -204 86t-75 234q0 143 68.5 233t193.5 113l211 39q82 14 82 90q0 123 -145 123q-76 0 -111 -34t-45 -118h-225q20 207 112.5 294t278.5 87q174 0 269.5 -83t95.5 -232v-590q0 -143 51 -170v-43zM604 391
v139q-39 -35 -160 -59q-88 -18 -123.5 -55t-35.5 -107q0 -61 30.5 -97t81.5 -36q86 0 146.5 62.5t60.5 152.5zM682 1382q0 -72 -63.5 -126t-149.5 -54t-149.5 54.5t-63.5 129.5q0 72 64.5 125.5t148.5 53.5t148.5 -54.5t64.5 -128.5zM575 1382q0 37 -30.5 62.5t-75.5 25.5
q-43 0 -75 -25.5t-32 -60.5q0 -37 31 -62.5t76 -25.5t75.5 25.5t30.5 60.5z" />
    <glyph glyph-name="ae" unicode="&#xe6;" horiz-adv-x="1492" 
d="M1442 465h-613q10 -137 59.5 -199.5t145.5 -62.5q121 0 156 119h242q-100 -350 -406 -351q-117 0 -187.5 39t-133.5 137q-104 -176 -338 -176q-154 0 -236 86t-82 244q0 127 60.5 210t166.5 105l220 46q78 14 99 32.5t21 71.5q0 63 -36.5 93t-118.5 30q-76 0 -111 -37
t-39 -117h-229q18 199 114.5 291t276.5 92q168 0 287 -121q70 68 130 94.5t140 26.5q195 0 303.5 -158.5t108.5 -443.5v-51zM612 385v135q-33 -35 -174 -61q-90 -16 -121.5 -48t-31.5 -102q0 -63 32.5 -98t92.5 -35q80 0 141 63.5t61 145.5zM1200 653q-25 229 -184 230
q-78 0 -121 -55.5t-59 -174.5h364z" />
    <glyph glyph-name="ccedilla" unicode="&#xe7;" 
d="M881 700h-238q-16 92 -52 134.5t-99 42.5q-193 0 -193 -334q0 -336 178 -336q68 0 112 52t52 138h238q-25 -195 -119 -303t-250 -121l-41 -90h41q66 0 106.5 -45t40.5 -114q0 -92 -59 -154t-154 -62q-74 0 -188 52l37 98q92 -33 127 -33q39 0 59.5 28t20.5 64
q0 31 -19.5 52.5t-46.5 21.5q-20 0 -65 -16l-35 41l78 159q-170 20 -262.5 164t-92.5 391q0 276 113 432t311 156q172 0 276 -105.5t124 -312.5z" />
    <glyph glyph-name="egrave" unicode="&#xe8;" 
d="M887 465h-613q10 -137 59.5 -199.5t145.5 -62.5q121 0 156 119h242q-100 -350 -402 -351q-209 0 -322.5 150.5t-113.5 427.5q0 266 112.5 417.5t311.5 151.5q205 0 314.5 -155.5t109.5 -446.5v-51zM645 653q-25 229 -184 230q-78 0 -121 -55.5t-59 -174.5h364zM553 1233
h-170l-246 299h258z" />
    <glyph glyph-name="eacute" unicode="&#xe9;" 
d="M887 465h-613q10 -137 59.5 -199.5t145.5 -62.5q121 0 156 119h242q-100 -350 -402 -351q-209 0 -322.5 150.5t-113.5 427.5q0 266 112.5 417.5t311.5 151.5q205 0 314.5 -155.5t109.5 -446.5v-51zM645 653q-25 229 -184 230q-78 0 -121 -55.5t-59 -174.5h364zM797 1532
l-246 -299h-170l158 299h258z" />
    <glyph glyph-name="ecircumflex" unicode="&#xea;" 
d="M887 465h-613q10 -137 59.5 -199.5t145.5 -62.5q121 0 156 119h242q-100 -350 -402 -351q-209 0 -322.5 150.5t-113.5 427.5q0 266 112.5 417.5t311.5 151.5q205 0 314.5 -155.5t109.5 -446.5v-51zM645 653q-25 229 -184 230q-78 0 -121 -55.5t-59 -174.5h364zM762 1233
h-191l-106 168l-105 -168h-190l190 299h211z" />
    <glyph glyph-name="edieresis" unicode="&#xeb;" 
d="M887 465h-613q10 -137 59.5 -199.5t145.5 -62.5q121 0 156 119h242q-100 -350 -402 -351q-209 0 -322.5 150.5t-113.5 427.5q0 266 112.5 417.5t311.5 151.5q205 0 314.5 -155.5t109.5 -446.5v-51zM645 653q-25 229 -184 230q-78 0 -121 -55.5t-59 -174.5h364zM395 1266
h-196v235h196v-235zM733 1266h-196v235h196v-235z" />
    <glyph glyph-name="igrave" unicode="&#xec;" horiz-adv-x="466" 
d="M350 0h-233v1090h233v-1090zM350 1233h-170l-246 299h259z" />
    <glyph glyph-name="iacute" unicode="&#xed;" horiz-adv-x="466" 
d="M350 0h-233v1090h233v-1090zM532 1532l-245 -299h-170l157 299h258z" />
    <glyph glyph-name="icircumflex" unicode="&#xee;" horiz-adv-x="466" 
d="M350 0h-233v1090h233v-1090zM528 1233h-190l-107 168l-104 -168h-190l190 299h211z" />
    <glyph glyph-name="idieresis" unicode="&#xef;" horiz-adv-x="466" 
d="M350 0h-233v1090h233v-1090zM162 1266h-197v235h197v-235zM500 1266h-197v235h197v-235z" />
    <glyph glyph-name="eth" unicode="&#xf0;" horiz-adv-x="1026" 
d="M971 596q0 -285 -125 -455t-334 -170q-205 0 -330 154t-125 407q0 236 115 387.5t291 151.5q74 0 126 -29.5t101 -99.5q-57 145 -172 268l-180 -96l-107 107l183 96q-71 61 -123 92l182 100q66 -35 131 -90l172 90l105 -106l-170 -90q137 -174 198.5 -345t61.5 -372z
M729 532q0 131 -58.5 214t-152.5 83q-100 0 -159.5 -85t-59.5 -228q0 -137 59.5 -220t157.5 -83t155.5 87t57.5 232z" />
    <glyph glyph-name="ntilde" unicode="&#xf1;" horiz-adv-x="1026" 
d="M918 0h-234v662q0 113 -36 164t-116 51q-88 0 -139 -68t-51 -184v-625h-233v1090h225v-166q92 195 274 194q141 0 225.5 -98t84.5 -266v-754zM821 1513q-39 -246 -180 -245q-23 0 -127 36.5t-125 36.5q-59 0 -78 -88h-106q41 252 203 252q12 0 113.5 -36.5t111.5 -36.5
q59 0 80 81h108z" />
    <glyph glyph-name="ograve" unicode="&#xf2;" horiz-adv-x="1026" 
d="M971 543q0 -260 -125 -416t-332 -156t-332 156t-125 416q0 264 125 419.5t338 155.5q205 0 328 -157.5t123 -417.5zM729 545q0 160 -55.5 246t-157.5 86q-217 0 -217 -332q0 -162 55.5 -247t159.5 -85t159.5 85t55.5 247zM598 1233h-170l-246 299h258z" />
    <glyph glyph-name="oacute" unicode="&#xf3;" horiz-adv-x="1026" 
d="M971 543q0 -260 -125 -416t-332 -156t-332 156t-125 416q0 264 125 419.5t338 155.5q205 0 328 -157.5t123 -417.5zM729 545q0 160 -55.5 246t-157.5 86q-217 0 -217 -332q0 -162 55.5 -247t159.5 -85t159.5 85t55.5 247zM844 1532l-246 -299h-170l158 299h258z" />
    <glyph glyph-name="ocircumflex" unicode="&#xf4;" horiz-adv-x="1026" 
d="M971 543q0 -260 -125 -416t-332 -156t-332 156t-125 416q0 264 125 419.5t338 155.5q205 0 328 -157.5t123 -417.5zM729 545q0 160 -55.5 246t-157.5 86q-217 0 -217 -332q0 -162 55.5 -247t159.5 -85t159.5 85t55.5 247zM809 1233h-191l-106 168l-104 -168h-191l191 299
h210z" />
    <glyph glyph-name="otilde" unicode="&#xf5;" horiz-adv-x="1026" 
d="M971 543q0 -260 -125 -416t-332 -156t-332 156t-125 416q0 264 125 419.5t338 155.5q205 0 328 -157.5t123 -417.5zM729 545q0 160 -55.5 246t-157.5 86q-217 0 -217 -332q0 -162 55.5 -247t159.5 -85t159.5 85t55.5 247zM821 1513q-39 -246 -180 -245q-23 0 -127 36.5
t-125 36.5q-59 0 -78 -88h-106q41 252 203 252q12 0 113.5 -36.5t111.5 -36.5q59 0 80 81h108z" />
    <glyph glyph-name="odieresis" unicode="&#xf6;" horiz-adv-x="1026" 
d="M971 543q0 -260 -125 -416t-332 -156t-332 156t-125 416q0 264 125 419.5t338 155.5q205 0 328 -157.5t123 -417.5zM729 545q0 160 -55.5 246t-157.5 86q-217 0 -217 -332q0 -162 55.5 -247t159.5 -85t159.5 85t55.5 247zM442 1266h-196v235h196v-235zM780 1266h-196v235
h196v-235z" />
    <glyph glyph-name="divide" unicode="&#xf7;" horiz-adv-x="980" 
d="M864 424h-747v176h747v-176zM618 880.5q0 -53.5 -36.5 -90t-90 -36.5t-90 36.5t-36.5 90t36.5 90.5t90 37t90 -37t36.5 -90.5zM618 145q0 -53 -36.5 -90t-90 -37t-90 37t-36.5 90.5t36.5 90t90 36.5t90 -38t36.5 -89z" />
    <glyph glyph-name="oslash" unicode="&#xf8;" horiz-adv-x="1026" 
d="M989 1081l-119 -151q100 -166 101 -385q0 -260 -125 -417t-332 -157q-166 0 -297 119l-117 -149l-63 59l123 158q-102 166 -103 387q0 262 124 417.5t333 155.5q166 0 301 -121l115 150zM729 547q0 100 -24 172l-338 -436q55 -70 145 -70q106 0 161.5 85t55.5 249z
M666 805q-63 72 -152 72q-104 0 -159.5 -85t-55.5 -245q0 -100 25 -180z" />
    <glyph glyph-name="ugrave" unicode="&#xf9;" horiz-adv-x="1026" 
d="M915 0h-225v160q-90 -188 -278 -189q-143 0 -222 104.5t-79 297.5v717h233v-676q0 -201 152 -201q88 0 137 66.5t49 181.5v629h233v-1090zM598 1233h-170l-246 299h258z" />
    <glyph glyph-name="uacute" unicode="&#xfa;" horiz-adv-x="1026" 
d="M915 0h-225v160q-90 -188 -278 -189q-143 0 -222 104.5t-79 297.5v717h233v-676q0 -201 152 -201q88 0 137 66.5t49 181.5v629h233v-1090zM844 1532l-246 -299h-170l158 299h258z" />
    <glyph glyph-name="ucircumflex" unicode="&#xfb;" horiz-adv-x="1026" 
d="M915 0h-225v160q-90 -188 -278 -189q-143 0 -222 104.5t-79 297.5v717h233v-676q0 -201 152 -201q88 0 137 66.5t49 181.5v629h233v-1090zM809 1233h-191l-106 168l-104 -168h-191l191 299h210z" />
    <glyph glyph-name="udieresis" unicode="&#xfc;" horiz-adv-x="1026" 
d="M915 0h-225v160q-90 -188 -278 -189q-143 0 -222 104.5t-79 297.5v717h233v-676q0 -201 152 -201q88 0 137 66.5t49 181.5v629h233v-1090zM442 1266h-196v235h196v-235zM780 1266h-196v235h196v-235z" />
    <glyph glyph-name="yacute" unicode="&#xfd;" 
d="M905 1090l-307 -1072q-90 -315 -139 -380q-55 -76 -201 -76l-113 4v229q33 -4 50 -4q76 0 105.5 32t45.5 132l-330 1135h263l192 -811l184 811h250zM797 1532l-246 -299h-170l158 299h258z" />
    <glyph glyph-name="thorn" unicode="&#xfe;" horiz-adv-x="1026" 
d="M971 557q0 -268 -102.5 -427t-276.5 -159q-90 0 -148.5 40t-105.5 134v-569h-234v1894h234v-526q51 92 111.5 133t146.5 41q170 0 272.5 -153.5t102.5 -407.5zM729 543q0 152 -53 238.5t-148 86.5q-201 0 -200 -340q0 -152 53 -236.5t149 -84.5q92 0 145.5 91t53.5 245z
" />
    <glyph glyph-name="ydieresis" unicode="&#xff;" 
d="M905 1090l-307 -1072q-90 -315 -139 -380q-55 -76 -201 -76l-113 4v229q33 -4 50 -4q76 0 105.5 32t45.5 132l-330 1135h263l192 -811l184 811h250zM395 1266h-196v235h196v-235zM733 1266h-196v235h196v-235z" />
  </font>
</defs>
</svg>
